<?xml version="1.0" encoding="utf-8"?>
<svg viewBox="0 0 773.11417 610.8036" xmlns="http://www.w3.org/2000/svg">
  <circle id="b9ed5a45-8896-4ed9-86b4-15f853c9a185" data-name="Ellipse 90" cx="323.91285" cy="11.58218" r="3.65074" fill="#fff"/>
  <circle id="a9233a38-f8ba-48e0-88f3-496fd4836d40" data-name="Ellipse 91" cx="337.76985" cy="11.58218" r="3.65074" fill="#fff"/>
  <circle id="aa82180f-a6a9-4f5f-82fc-e73106f4ad92" data-name="Ellipse 92" cx="351.62748" cy="11.58218" r="3.65074" fill="#fff"/>
  <path d="M 417.73 226.642 C 417.789 237.31 408.546 245.653 397.94 244.504 C 397.148 244.415 396.364 244.27 395.592 244.072 L 335.128 295.899 L 338.741 315.375 L 308.939 325.033 L 299.954 293.822 C 297.771 286.13 300.893 277.918 307.634 273.618 L 382.015 226.573 C 382.016 225.988 382.046 225.403 382.107 224.821 C 383.258 214.214 393.389 206.973 403.798 209.319 C 404.512 209.477 405.215 209.68 405.903 209.927 C 412.954 212.476 417.672 219.145 417.73 226.642 Z" fill="#9f616a" transform="matrix(-1, 0, 0, -1, 716.995128, 533.90931)"/>
  <path d="M 303.447 411.218 L 381.404 411.218 C 381.404 408.977 461.75 407.159 461.75 407.159 C 463.011 406.209 464.16 405.12 465.176 403.911 C 468.228 400.271 469.896 395.671 469.885 390.921 L 469.885 387.673 C 469.881 376.465 460.796 367.38 449.588 367.376 L 303.447 367.376 C 292.242 367.386 283.16 376.467 283.15 387.673 L 283.15 390.921 C 283.166 402.124 292.244 411.203 303.447 411.218 Z" fill="#3f3d56" transform="matrix(-1, 0, 0, -1, 753.035106, 778.594006)"/>
  <rect x="-385.896" y="410.411" width="21.109" height="136.399" fill="#3f3d56" transform="matrix(-1, 0, 0, 1, 0, 0)"/>
  <path d="M 447.601 527.167 C 447.601 524.613 415.613 526.179 376.154 526.179 C 336.694 526.179 304.706 524.613 304.706 527.167 C 304.706 529.72 336.694 549.971 376.154 549.971 C 415.613 549.971 447.601 529.72 447.601 527.167 Z" fill="#3f3d56" transform="matrix(-1, 0, 0, -1, 752.307018, 1075.674821)"/>
  <polygon points="294.389 478.449 314.295 478.451 323.766 530.083 294.385 530.081 294.389 478.449" fill="#9f616a" transform="matrix(-1, 0, 0, -1, 618.15101, 1008.531997)"/>
  <path d="M 264.652 523.581 L 328.841 523.583 L 328.841 524.395 C 328.842 538.194 317.656 549.379 303.858 549.379 L 303.855 549.379 L 264.651 549.378 L 264.652 523.581 Z" fill="#2f2e41" transform="matrix(-1, 0, 0, -1, 593.492013, 1072.959977)"/>
  <path d="M 392.689 318.735 L 432.376 407.732 C 439.247 423.287 433.014 441.511 418.056 449.6 L 331.973 495.761 L 292.692 499.102 L 256.457 502.396 L 256.196 501.954 C 255.862 501.389 248.071 487.932 253.337 473.177 C 257.332 461.985 267.722 453.243 284.22 447.193 C 322.727 433.074 367.211 421.006 384.548 416.474 C 386.098 416.078 387.405 415.038 388.139 413.617 C 388.875 412.213 388.99 410.565 388.458 409.072 L 351.587 326.234 C 349.937 321.731 352.998 316.886 357.772 316.443 L 385.323 314.437 C 385.557 314.415 385.789 314.404 386.021 314.404 C 388.904 314.405 391.516 316.102 392.689 318.735 Z" fill="#cbcbcb" transform="matrix(-1, 0, 0, -1, 686.677806, 816.8)"/>
  <polygon points="307.376 478.449 327.281 478.451 336.754 530.083 307.372 530.081 307.376 478.449" fill="#9f616a" transform="matrix(-1, 0, 0, -1, 644.125986, 1008.531997)"/>
  <path d="M 277.641 523.58 L 341.83 523.582 L 341.83 524.394 C 341.83 538.193 330.645 549.378 316.846 549.378 L 316.844 549.378 L 277.639 549.377 L 277.641 523.58 Z" fill="#2f2e41" transform="matrix(-1, 0, 0, -1, 619.469003, 1072.958024)"/>
  <path d="M 399.184 324.048 L 438.872 413.045 C 445.743 428.6 439.51 446.824 424.552 454.913 L 338.468 501.074 L 299.186 504.415 L 270.805 506.877 L 270.809 507.266 C 270.475 506.702 262.684 493.245 267.95 478.49 C 271.945 467.298 274.216 458.555 290.714 452.506 C 329.222 438.386 373.706 426.319 391.043 421.787 C 392.593 421.391 393.9 420.351 394.634 418.929 C 395.369 417.525 395.485 415.878 394.952 414.385 L 358.082 331.547 C 356.431 327.045 359.492 322.2 364.267 321.757 L 391.818 319.751 C 392.051 319.729 392.284 319.718 392.516 319.718 C 395.399 319.719 398.011 321.415 399.184 324.048 Z" fill="#cbcbcb" transform="matrix(-1, 0, 0, -1, 707.786815, 826.984021)"/>
  <path d="M 423.059 190.703 C 424.962 192.049 452.288 177.713 457.16 189.079 C 434.426 245.913 450.091 270.455 436.166 303.045 C 431.197 314.434 421.284 322.919 409.264 326.07 L 373.135 327.894 L 372.948 327.804 C 356.208 319.604 346.824 301.398 349.859 283.006 C 349.987 247.537 371.209 220.484 363.789 194.758 C 363.16 192.584 363.444 190.249 364.575 188.289 C 365.671 186.395 367.502 185.038 369.634 184.54 L 417.339 190.904 C 419.594 190.367 421.97 190.827 423.862 192.166 L 423.059 190.703 Z" fill="#2f2e41" transform="matrix(-1, 0, 0, -1, 806.453137, 512.434029)"/>
  <circle cx="-421.26" cy="131.164" r="39.882" fill="#9f616a" transform="matrix(-1, 0, 0, 1, 0, 0)"/>
  <path d="M 412.856 79.006 C 414.975 78.078 419.314 94.963 417.371 98.34 C 414.48 103.362 414.651 103.326 412.732 106.649 C 410.813 109.972 410.383 114.52 412.868 117.443 C 415.354 120.367 421.104 119.979 422.238 116.314 C 421.509 123.276 428.396 128.873 435.217 130.446 C 442.039 132.019 449.235 131.042 456.094 132.442 C 464.055 134.066 472.337 140.739 469.161 149.493 C 468.616 150.95 467.8 152.291 466.756 153.445 C 463.086 157.571 457.953 159.333 452.934 161.036 C 442.493 164.58 431.766 168.169 420.747 167.777 C 402.642 167.135 385.528 154.619 379.428 137.56 C 378.668 135.431 378.08 133.246 377.668 131.023 C 373.886 110.687 385.696 90.627 404.877 82.883 L 412.856 79.006 Z" fill="#2f2e41" transform="matrix(-1, 0, 0, -1, 846.821119, 246.775608)"/>
  <path d="M 256.366 349.269 L 260.939 322.113 C 260.99 321.81 260.957 321.499 260.843 321.214 L 224.963 231.561 C 224.484 230.366 222.892 230.137 222.097 231.148 C 221.88 231.424 221.755 231.761 221.74 232.112 L 220.22 268.139 C 220.21 268.378 220.252 268.617 220.342 268.839 L 253.169 349.621 C 253.653 350.813 255.247 351.034 256.037 350.018 C 256.207 349.799 256.32 349.542 256.366 349.269 Z" fill="#3f3d56" transform="matrix(-1, 0, 0, -1, 481.180854, 581.173471)"/>
  <polygon points="254.636 339.13 258.982 315.8 227.141 233.99 223.007 260.306 254.636 339.13" fill="#6c63ff" transform="matrix(-1, 0, 0, -1, 481.989021, 573.120065)"/>
  <path d="M 257.433 309.202 C 258.216 306.144 361.073 302.833 362.14 303.758 C 363.097 304.944 363.926 306.227 364.614 307.586 C 365.692 309.511 366.69 311.442 366.69 311.442 L 364.999 343.971 L 263.678 354.799 C 263.678 354.799 259.195 327.653 257.788 315.182 C 257.47 313.206 257.351 311.202 257.433 309.202 Z" fill="#3f3d56" transform="matrix(-1, 0, 0, -1, 624.09791, 658.399119)"/>
  <polygon points="317.153 342.849 317.162 314.824 272.348 318.01 274.331 345.894 317.153 342.849" opacity="0.1" style="isolation:isolate" transform="matrix(-1, 0, 0, -1, 589.509958, 660.718027)"/>
  <polygon points="357.223 332.763 357.494 332.797 355.378 320.883 330.481 322.653 331.331 334.604 357.223 332.763" opacity="0.1" style="isolation:isolate" transform="matrix(-1, 0, 0, -1, 687.974986, 655.487009)"/>
  <path d="M 259.508 348.817 C 260.291 345.759 363.148 342.448 364.215 343.373 C 365.172 344.559 366.001 345.842 366.689 347.201 L 259.863 354.797 C 259.545 352.821 259.426 350.817 259.508 348.817 Z" opacity="0.1" style="isolation:isolate" transform="matrix(-1, 0, 0, -1, 626.171884, 698.012095)"/>
  <path d="M 304.409 277.649 L 391.173 261.457 C 391.39 260.914 391.635 260.382 391.907 259.864 C 394.291 255.378 398.468 252.117 403.398 250.891 C 408.349 249.646 413.597 250.597 417.797 253.5 C 429.134 261.283 427.794 278.42 415.385 284.347 C 410.279 286.785 404.321 286.661 399.322 284.012 C 398.62 283.635 397.945 283.21 397.302 282.74 L 321.941 308.484 L 318.084 327.913 L 286.824 325.845 L 290.063 293.275 C 290.87 285.47 296.701 279.119 304.409 277.649 Z" fill="#9f616a" transform="matrix(-1, 0, 0, -1, 712.375255, 578.26893)"/>
  <path d="M 381.621 209.426 L 427.043 224.355 L 416.448 254.778 C 413.543 263.119 405.052 268.154 396.341 266.702 C 387.521 265.232 381.089 257.553 381.188 248.613 L 381.621 209.426 Z" fill="#2f2e41" transform="matrix(-1, 0, 0, -1, 808.22987, 476.376411)"/>
  <path d="M595.44291,755.4018h-381a1,1,0,1,1,0-2h381a1,1,0,0,1,0,2Z" transform="matrix(1, 0, 0, 1, -213.442917, -144.598206)" fill="#cbcbcb"/>
</svg>