<?xml version="1.0" standalone="no"?>
<!DOCTYPE svg PUBLIC "-//W3C//DTD SVG 20010904//EN"
 "http://www.w3.org/TR/2001/REC-SVG-20010904/DTD/svg10.dtd">
<svg version="1.0" xmlns="http://www.w3.org/2000/svg"
 width="1024.000000pt" height="1024.000000pt" viewBox="0 0 1024.000000 1024.000000"
 preserveAspectRatio="xMidYMid meet">

<g transform="translate(0.000000,1024.000000) scale(0.100000,-0.100000)"
fill="#000000" stroke="none">
<path d="M1510 7143 c0 -1961 5 -2315 35 -2628 55 -568 169 -1034 369 -1510
51 -121 169 -351 221 -430 18 -27 57 -89 88 -137 124 -191 345 -440 545 -613
94 -80 116 -97 272 -204 494 -337 1098 -534 1850 -602 181 -17 687 -17 880 -1
741 63 1392 271 1863 596 49 34 105 72 125 85 38 25 122 94 236 195 137 122
373 398 468 551 14 22 47 74 73 115 56 87 182 327 232 445 171 399 284 821
343 1290 56 444 60 609 60 2813 l0 2012 -837 -2 -838 -3 -6 -2110 c-6 -2264
-3 -2139 -54 -2335 -35 -135 -109 -265 -199 -348 -56 -52 -89 -68 -211 -107
l-100 -31 -1 -149 c-3 -289 -63 -554 -199 -883 -26 -62 -26 -64 -11 -135 8
-40 24 -110 36 -157 48 -190 24 -336 -74 -435 -65 -67 -137 -95 -258 -102
-163 -10 -271 25 -430 140 -57 41 -124 85 -149 97 -24 13 -55 31 -68 42 -13
10 -54 28 -91 39 l-67 20 18 52 c9 29 25 102 34 162 9 61 21 137 26 170 11 79
11 370 -1 464 -6 41 -18 90 -27 110 -16 32 -25 38 -83 52 -95 24 -268 33 -380
19 -52 -6 -116 -14 -143 -17 -26 -3 -50 -9 -52 -14 -8 -12 -24 -104 -40 -223
-17 -128 -19 -246 -5 -331 6 -33 15 -101 20 -151 5 -50 16 -116 24 -147 8 -31
18 -76 21 -100 6 -41 5 -46 -17 -52 -34 -11 -206 -97 -257 -129 -24 -15 -69
-49 -100 -74 -179 -146 -439 -175 -616 -69 -63 38 -73 49 -107 114 -22 44 -39
93 -44 129 -13 107 26 322 72 392 9 13 12 31 9 40 -23 56 -137 394 -150 445
-50 189 -67 312 -72 505 -5 192 -5 192 -28 192 -34 0 -155 39 -193 62 -169
103 -267 284 -318 588 -17 98 -18 249 -21 2188 l-4 2082 -834 0 -835 0 0
-1977z"/>
<path d="M5238 7770 c-122 -21 -209 -67 -308 -164 -217 -213 -215 -549 5 -772
140 -143 328 -194 527 -144 142 37 237 105 320 231 64 96 74 124 88 232 30
239 -101 477 -316 573 -58 26 -187 55 -236 53 -18 -1 -54 -5 -80 -9z"/>
<path d="M4664 6671 c-17 -14 -67 -54 -112 -89 -100 -78 -258 -241 -335 -347
-132 -181 -247 -421 -289 -608 -27 -119 -29 -303 -4 -396 71 -263 270 -428
523 -434 62 -2 77 1 75 12 -2 8 -10 84 -18 170 -20 201 -45 303 -86 356 -18
22 -36 42 -40 43 -15 7 -8 20 42 69 l50 50 0 82 0 81 855 0 855 0 0 -75 c0
-73 1 -77 35 -112 44 -46 53 -90 31 -159 -12 -38 -28 -62 -52 -81 l-34 -28 0
-135 c0 -74 -4 -150 -10 -168 -5 -19 -12 -90 -16 -158 l-7 -124 -768 0 c-754
0 -769 0 -789 20 -11 11 -23 38 -26 60 -4 22 -8 40 -10 40 -2 0 -43 -23 -91
-52 -104 -61 -221 -174 -259 -251 -84 -165 -116 -353 -96 -570 21 -224 71
-411 179 -662 62 -146 74 -193 89 -339 l6 -59 87 5 c95 6 157 27 204 71 l28
27 -26 38 c-45 68 -55 149 -44 360 16 326 35 461 71 507 11 14 47 44 79 66
249 169 717 197 1021 63 83 -37 197 -120 210 -153 23 -57 38 -172 49 -379 15
-288 10 -384 -25 -456 -15 -31 -32 -56 -37 -56 -5 0 -9 -4 -9 -9 0 -16 233
-91 284 -91 33 0 41 19 60 149 13 86 53 215 77 246 15 19 87 214 113 303 56
194 79 391 66 569 -20 271 -106 439 -285 558 -95 64 -113 84 -117 135 l-3 35
85 7 c326 24 544 332 500 703 -38 317 -239 700 -496 945 -85 81 -291 239 -312
240 -6 0 -29 -18 -49 -41 -49 -54 -164 -129 -259 -169 -119 -49 -200 -63 -339
-56 -213 9 -364 71 -540 222 l-61 52 -30 -27z m1486 -2186 c44 -23 65 -69 49
-107 -7 -16 -23 -34 -36 -39 -14 -5 -378 -9 -859 -9 l-834 0 0 85 0 85 825 0
c719 0 830 -2 855 -15z"/>
<path d="M10080 80 l0 -80 80 0 80 0 0 80 0 80 -80 0 -80 0 0 -80z"/>
</g>
</svg>
